<?xml version="1.0" encoding="UTF-8"?>
<svg id="Livello_1" xmlns="http://www.w3.org/2000/svg" version="1.1" viewBox="0 0 112.22 112.22">
  <!-- Generator: Adobe Illustrator 30.5.0, SVG Export Plug-In . SVG Version: 2.1.4 Build 167)  -->
  <defs>
    <style>
      .st0 {
        fill: #010101;
      }

      .st1 {
        fill: none;
        stroke: #ed1c24;
        stroke-miterlimit: 10;
        stroke-width: 8px;
      }

      .st2 {
        fill: #ed1c24;
      }
    </style>
  </defs>
  <g>
    <g>
      <path class="st0" d="M54.51,46.27l-14.13-18.8-.05-.06c-1.05-1.24-2.43-1.9-4.01-1.9-1.46,0-2.7.5-3.68,1.48-.98.98-1.48,2.24-1.48,3.75v50.74c0,1.45.49,2.69,1.46,3.7.98,1.02,2.22,1.53,3.69,1.53s2.78-.51,3.77-1.53c.97-1,1.46-2.25,1.46-3.7v-36.95l5.53,7.35c1.38-2.93,4.14-5.09,7.44-5.62Z"/>
      <path class="st0" d="M79.63,27.01h0c-.96-.99-2.21-1.49-3.73-1.49s-2.69.49-3.7,1.46c-1.01.98-1.53,2.25-1.53,3.77v37.02l-5.55-7.38c-1.39,2.92-4.16,5.07-7.47,5.59l14.19,18.88c.5.64,1.15,1.12,1.95,1.43.73.28,1.43.43,2.1.43,1.53,0,2.79-.52,3.74-1.55.93-1,1.41-2.24,1.41-3.68V30.74c0-1.5-.48-2.75-1.42-3.73Z"/>
    </g>
    <circle class="st2" cx="56.11" cy="56.11" r="6.96"/>
  </g>
  <g>
    <path class="st0" d="M54.51,46.27l-14.13-18.8-.05-.06c-1.05-1.24-2.43-1.9-4.01-1.9-1.46,0-2.7.5-3.68,1.48-.98.98-1.48,2.24-1.48,3.75v50.74c0,1.45.49,2.69,1.46,3.7.98,1.02,2.22,1.53,3.69,1.53s2.78-.51,3.77-1.53c.97-1,1.46-2.25,1.46-3.7v-36.95l5.53,7.35c1.38-2.93,4.14-5.09,7.44-5.62Z"/>
    <path class="st0" d="M79.63,27.01h0c-.96-.99-2.21-1.49-3.73-1.49s-2.69.49-3.7,1.46c-1.01.98-1.53,2.25-1.53,3.77v37.02l-5.55-7.38c-1.39,2.92-4.16,5.07-7.47,5.59l14.19,18.88c.5.64,1.15,1.12,1.95,1.43.73.28,1.43.43,2.1.43,1.53,0,2.79-.52,3.74-1.55.93-1,1.41-2.24,1.41-3.68V30.74c0-1.5-.48-2.75-1.42-3.73Z"/>
  </g>
  <circle class="st1" cx="56.11" cy="56.11" r="52.1"/>
</svg>