<?xml version="1.0" encoding="UTF-8"?>
<svg id="Livello_1" xmlns="http://www.w3.org/2000/svg" version="1.1" viewBox="0 0 235.68 94.57">
  <!-- Generator: Adobe Illustrator 30.5.0, SVG Export Plug-In . SVG Version: 2.1.4 Build 167)  -->
  <defs>
    <style>
      .st0 {
        fill: #010101;
      }

      .st1 {
        fill: #ed1c24;
      }
    </style>
  </defs>
  <g>
    <path class="st0" d="M83.42,70.92c-.88,0-1.61-.29-2.2-.87-.58-.58-.87-1.31-.87-2.2v-26.82c0-.92.29-1.66.87-2.23.58-.56,1.31-.84,2.2-.84s1.66.28,2.23.84c.56.56.84,1.3.84,2.23v26.82c0,.88-.28,1.61-.84,2.2-.56.58-1.3.87-2.23.87ZM108.14,70.92c-.88,0-1.61-.29-2.2-.87-.58-.58-.87-1.31-.87-2.2v-14.79c0-2.29-.42-4.15-1.26-5.59-.84-1.44-1.98-2.52-3.4-3.22-1.42-.7-3.06-1.05-4.9-1.05-1.68,0-3.21.34-4.57,1.02-1.36.68-2.45,1.59-3.25,2.74-.8,1.14-1.2,2.46-1.2,3.94h-3.79c0-2.53.61-4.78,1.83-6.77,1.22-1.98,2.9-3.56,5.02-4.72,2.12-1.16,4.51-1.74,7.16-1.74s5.24.59,7.43,1.77c2.18,1.18,3.91,2.92,5.17,5.2s1.89,5.09,1.89,8.42v14.79c0,.88-.29,1.61-.87,2.2-.58.58-1.31.87-2.2.87Z"/>
    <path class="st0" d="M136.28,71.1c-3.25,0-6.11-.71-8.6-2.13-2.49-1.42-4.44-3.39-5.86-5.89-1.42-2.51-2.13-5.38-2.13-8.63s.71-6.18,2.13-8.69c1.42-2.51,3.38-4.47,5.86-5.89,2.49-1.42,5.35-2.13,8.6-2.13s6.05.71,8.54,2.13c2.49,1.42,4.44,3.39,5.86,5.89,1.42,2.51,2.13,5.4,2.13,8.69s-.7,6.12-2.1,8.63c-1.4,2.51-3.35,4.47-5.83,5.89-2.49,1.42-5.35,2.13-8.6,2.13ZM136.28,65.69c2.08,0,3.93-.48,5.53-1.44,1.6-.96,2.86-2.29,3.76-3.97.9-1.68,1.35-3.63,1.35-5.83s-.45-4.16-1.35-5.86c-.9-1.7-2.16-3.04-3.76-4-1.6-.96-3.45-1.44-5.53-1.44s-3.93.48-5.53,1.44c-1.6.96-2.87,2.3-3.79,4-.92,1.7-1.38,3.66-1.38,5.86s.46,4.15,1.38,5.83c.92,1.68,2.18,3.01,3.79,3.97,1.6.96,3.45,1.44,5.53,1.44Z"/>
    <path class="st0" d="M176.87,71.1c-3.13,0-5.94-.73-8.45-2.19-2.51-1.46-4.49-3.46-5.95-5.98-1.46-2.53-2.2-5.37-2.2-8.54s.67-6,2.01-8.51c1.34-2.51,3.18-4.49,5.5-5.95,2.32-1.46,4.95-2.2,7.88-2.2,2.36,0,4.55.49,6.55,1.47,2,.98,3.69,2.32,5.05,4v-16.24c0-.92.29-1.66.87-2.22.58-.56,1.31-.84,2.2-.84s1.66.28,2.23.84c.56.56.84,1.3.84,2.22v27.42c0,3.17-.73,6.01-2.2,8.54-1.46,2.53-3.44,4.52-5.92,5.98-2.49,1.46-5.29,2.19-8.42,2.19ZM176.87,65.69c2.04,0,3.87-.49,5.47-1.47,1.6-.98,2.87-2.34,3.79-4.06.92-1.72,1.38-3.65,1.38-5.77s-.46-4.09-1.38-5.77c-.92-1.68-2.19-3.02-3.79-4-1.6-.98-3.43-1.47-5.47-1.47s-3.82.49-5.44,1.47c-1.62.98-2.91,2.32-3.85,4-.94,1.68-1.41,3.61-1.41,5.77s.47,4.05,1.41,5.77c.94,1.72,2.23,3.08,3.85,4.06,1.62.98,3.44,1.47,5.44,1.47Z"/>
    <path class="st0" d="M219.15,71.1c-3.25,0-6.11-.71-8.6-2.13-2.49-1.42-4.44-3.39-5.86-5.89-1.42-2.51-2.13-5.38-2.13-8.63s.71-6.18,2.13-8.69c1.42-2.51,3.38-4.47,5.86-5.89,2.49-1.42,5.35-2.13,8.6-2.13s6.05.71,8.54,2.13c2.49,1.42,4.44,3.39,5.86,5.89,1.42,2.51,2.13,5.4,2.13,8.69s-.7,6.12-2.1,8.63c-1.4,2.51-3.35,4.47-5.83,5.89-2.49,1.42-5.35,2.13-8.6,2.13ZM219.15,65.69c2.08,0,3.93-.48,5.53-1.44,1.6-.96,2.86-2.29,3.76-3.97.9-1.68,1.35-3.63,1.35-5.83s-.45-4.16-1.35-5.86c-.9-1.7-2.16-3.04-3.76-4-1.6-.96-3.45-1.44-5.53-1.44s-3.93.48-5.53,1.44c-1.6.96-2.87,2.3-3.79,4-.92,1.7-1.38,3.66-1.38,5.86s.46,4.15,1.38,5.83c.92,1.68,2.18,3.01,3.79,3.97,1.6.96,3.45,1.44,5.53,1.44Z"/>
  </g>
  <g>
    <g>
      <path class="st0" d="M23.34,39.59l-14.13-18.8-.05-.06c-1.05-1.24-2.43-1.9-4.01-1.9-1.46,0-2.7.5-3.68,1.48-.98.98-1.48,2.24-1.48,3.75v50.74c0,1.45.49,2.69,1.46,3.7.98,1.02,2.22,1.53,3.69,1.53s2.78-.51,3.77-1.53c.97-1,1.46-2.25,1.46-3.7v-36.95l5.53,7.35c1.38-2.93,4.14-5.09,7.44-5.62Z"/>
      <path class="st0" d="M48.46,20.33h0c-.96-.99-2.21-1.49-3.73-1.49s-2.69.49-3.7,1.46c-1.01.98-1.53,2.25-1.53,3.77v37.02l-5.55-7.38c-1.39,2.92-4.16,5.07-7.47,5.59l14.19,18.88c.5.64,1.15,1.12,1.95,1.43.73.28,1.43.43,2.1.43,1.53,0,2.79-.52,3.74-1.55.93-1,1.41-2.24,1.41-3.68V24.06c0-1.5-.48-2.75-1.42-3.73Z"/>
    </g>
    <circle class="st1" cx="24.94" cy="49.43" r="6.96"/>
  </g>
  <rect class="st1" x="64.55" y="0" width="2.66" height="94.57" rx="1.1" ry="1.1"/>
</svg>